<svg width="22" height="22" viewBox="0 0 22 22" fill="none" xmlns="http://www.w3.org/2000/svg">
<rect x="1.5" y="1.5" width="19" height="19" rx="9.5" fill="#3DDB85"/>
<rect x="1.5" y="1.5" width="19" height="19" rx="9.5" stroke="transparent" stroke-width="3"/>
<path d="M13.467 11.4872C13.2217 11.4872 13.0221 11.2875 13.0221 11.0422C13.0221 10.7969 13.2217 10.5973 13.467 10.5973C13.7123 10.5973 13.9118 10.7969 13.9118 11.0422C13.9118 11.2875 13.7123 11.4872 13.467 11.4872ZM8.54994 11.4872C8.30463 11.4872 8.10511 11.2875 8.10511 11.0422C8.10511 10.7969 8.30463 10.5973 8.54994 10.5973C8.79524 10.5973 8.99478 10.7969 8.99478 11.0422C8.99478 11.2875 8.79524 11.4872 8.54994 11.4872ZM13.6265 8.80745L14.5156 7.26764C14.5666 7.17913 14.5362 7.06608 14.4479 7.01497C14.3595 6.964 14.2463 6.99432 14.1952 7.08268L13.295 8.64199C12.6066 8.32782 11.8334 8.15283 11.0084 8.15283C10.1835 8.15283 9.4103 8.32782 8.7219 8.64199L7.82169 7.08268C7.77058 6.99432 7.65738 6.964 7.56902 7.01497C7.48066 7.06608 7.4502 7.17913 7.50131 7.26764L8.3904 8.80745C6.86372 9.63779 5.81956 11.1834 5.66681 13.0094H16.3501C16.1972 11.1834 15.153 9.63779 13.6265 8.80745Z" fill="white"/>
</svg>
