<svg width="17" height="16" viewBox="0 0 17 16" fill="none" xmlns="http://www.w3.org/2000/svg">
    <path d="M11.7001 10.2298C11.3322 10.2298 11.0329 9.93024 11.0329 9.56229C11.0329 9.19433 11.3322 8.89503 11.7001 8.89503C12.0681 8.89503 12.3674 9.19433 12.3674 9.56229C12.3674 9.93024 12.0681 10.2298 11.7001 10.2298ZM4.32458 10.2298C3.95662 10.2298 3.65733 9.93024 3.65733 9.56229C3.65733 9.19433 3.95662 8.89503 4.32458 8.89503C4.69253 8.89503 4.99183 9.19433 4.99183 9.56229C4.99183 9.93024 4.69253 10.2298 4.32458 10.2298ZM11.9394 6.2102L13.2731 3.90048C13.3495 3.76772 13.304 3.59815 13.1715 3.52148C13.0389 3.44503 12.8692 3.49051 12.7925 3.62305L11.4422 5.96201C10.4096 5.49076 9.24983 5.22827 8.01233 5.22827C6.77485 5.22827 5.61512 5.49076 4.58251 5.96201L3.23219 3.62305C3.15553 3.49051 2.98574 3.44503 2.8532 3.52148C2.72065 3.59815 2.67496 3.76772 2.75162 3.90048L4.08526 6.2102C1.79524 7.4557 0.229006 9.77409 -0.00012207 12.5131H16.0248C15.7955 9.77409 14.2292 7.4557 11.9394 6.2102Z" fill="#3DDB85"/>
</svg>
