<svg width="22" height="22" viewBox="0 0 22 22" fill="none" xmlns="http://www.w3.org/2000/svg">
<rect x="1.5" y="1.5" width="19" height="19" rx="9.5" fill="#AEB4C0"/>
<rect x="1.5" y="1.5" width="19" height="19" rx="9.5" stroke="transparent" stroke-width="3"/>
<path d="M13.4125 7.84082C14.1082 7.84082 14.846 8.21338 15.3705 8.85547C13.651 9.78095 13.929 12.1918 15.6664 12.8369C15.4275 13.3567 15.313 13.5894 15.0053 14.0498C14.576 14.6925 13.9699 15.4922 13.2192 15.498C12.5531 15.505 12.3812 15.072 11.477 15.0771C10.5725 15.0819 10.3834 15.5063 9.71623 15.5C8.96603 15.4935 8.39161 14.7716 7.96232 14.1289C6.76136 12.3332 6.63578 10.2248 7.37638 9.10352C7.90328 8.30767 8.73448 7.8418 9.51506 7.8418C10.3093 7.84197 10.8093 8.27051 11.4672 8.27051C12.1052 8.27042 12.4938 7.84093 13.4125 7.84082ZM13.2113 5.5C13.3029 6.10721 13.0502 6.70207 12.7162 7.12305C12.3589 7.57451 11.7427 7.92429 11.1459 7.90625C11.0369 7.32473 11.3152 6.72504 11.6547 6.32227C12.027 5.87786 12.6654 5.53716 13.2113 5.5Z" fill="white"/>
</svg>
