<svg width="16" height="16" viewBox="0 0 16 16" fill="none" xmlns="http://www.w3.org/2000/svg">
    <path fill-rule="evenodd" clip-rule="evenodd" d="M2.97848 12.3131L12.3118 2.97974L13.0189 3.68684L11.6067 5.09909C13.5208 6.28322 14.6654 8.00002 14.6654 8.00002C14.6654 8.00002 11.332 12 7.9987 12C7.1127 12 6.2267 11.7174 5.4033 11.3025L3.68558 13.0202L2.97848 12.3131ZM6.15339 10.5524C6.77284 10.83 7.39922 11 7.9987 11C9.30738 11 10.7443 10.1896 11.9573 9.21915C12.5324 8.75906 13.016 8.2966 13.3589 7.94495C13.0756 7.61108 12.6771 7.18431 12.1812 6.75928C11.7918 6.42551 11.3551 6.10342 10.8777 5.82809L9.72249 6.98327C9.8988 7.28126 10 7.62895 10 8.00028C10 9.10485 9.10457 10.0003 8 10.0003C7.62867 10.0003 7.28098 9.89909 6.98299 9.72277L6.15339 10.5524ZM7.9987 5.00002C8.29993 5.00002 8.59394 5.02744 8.87986 5.07785L9.71235 4.24536C9.17449 4.09094 8.60174 4.00002 7.9987 4.00002C3.9987 4.00002 1.33203 8.00002 1.33203 8.00002C1.33203 8.00002 2.30274 9.16488 3.72033 10.2374L4.43477 9.52294C4.30094 9.42402 4.16923 9.32249 4.04006 9.21915C3.46495 8.75906 2.98143 8.2966 2.6385 7.94495C2.92182 7.61108 3.32029 7.18431 3.81616 6.75928C4.89468 5.83483 6.33661 5.00002 7.9987 5.00002Z" fill="#1F4B65" fill-opacity="0.54"/>
</svg>
