<svg width="16" height="16" viewBox="0 0 16 16" fill="none" xmlns="http://www.w3.org/2000/svg">
    <path fill-rule="evenodd" clip-rule="evenodd" d="M7.9987 4C11.9987 4 14.6654 8 14.6654 8C14.6654 8 11.332 12 7.9987 12C4.66536 12 1.33203 8 1.33203 8C1.33203 8 3.9987 4 7.9987 4ZM2.6385 7.94493C2.92182 7.61106 3.32029 7.18429 3.81616 6.75926C4.89468 5.83481 6.33661 5 7.9987 5C9.66079 5 11.1027 5.83481 12.1812 6.75926C12.6771 7.18429 13.0756 7.61106 13.3589 7.94493C13.016 8.29657 12.5324 8.75904 11.9573 9.21913C10.7443 10.1896 9.30738 11 7.9987 11C6.69002 11 5.2531 10.1896 4.04006 9.21913C3.46495 8.75904 2.98143 8.29657 2.6385 7.94493ZM8 10.0003C9.10457 10.0003 10 9.10483 10 8.00026C10 6.89569 9.10457 6.00026 8 6.00026C6.89543 6.00026 6 6.89569 6 8.00026C6 9.10483 6.89543 10.0003 8 10.0003Z" fill="#1F4B65" fill-opacity="0.54"/>
</svg>
