<svg width="24" height="24" viewBox="0 0 24 24" fill="none" xmlns="http://www.w3.org/2000/svg">
    <path fill-rule="evenodd" clip-rule="evenodd" d="M12 4.5H6C5.17157 4.5 4.5 5.17157 4.5 6V12C4.5 12.8284 5.17157 13.5 6 13.5H7.5V15H6C4.34315 15 3 13.6569 3 12V6C3 4.34315 4.34315 3 6 3H12C13.6569 3 15 4.34315 15 6V7.5H13.5V6C13.5 5.17157 12.8284 4.5 12 4.5ZM10.5 12C10.5 11.1716 11.1716 10.5 12 10.5H18C18.8284 10.5 19.5 11.1716 19.5 12V18C19.5 18.8284 18.8284 19.5 18 19.5H12C11.1716 19.5 10.5 18.8284 10.5 18V12ZM9 12C9 10.3431 10.3431 9 12 9H18C19.6569 9 21 10.3431 21 12V18C21 19.6569 19.6569 21 18 21H12C10.3431 21 9 19.6569 9 18V12Z" fill="#AEB4C0"/>
</svg>
