<svg width="16" height="16" viewBox="0 0 16 16" fill="none" xmlns="http://www.w3.org/2000/svg">
    <path fill-rule="evenodd" clip-rule="evenodd" d="M10.6332 1C10.7588 1.833 10.4115 2.64906 9.9533 3.22643C9.4631 3.84573 8.61818 4.32472 7.79954 4.29973C7.6501 3.50221 8.03273 2.68051 8.4983 2.12813C9.00903 1.51851 9.88433 1.0508 10.6332 1ZM13.0927 12.7277C13.5147 12.0963 13.6724 11.7778 14 11.0649C11.6171 10.1803 11.2353 6.87333 13.5936 5.60408C12.8743 4.72351 11.8635 4.21307 10.9094 4.21307C10.2219 4.21307 9.75082 4.3882 9.3226 4.54742C8.96574 4.6801 8.63862 4.80173 8.24075 4.80173C7.8108 4.80173 7.43006 4.66847 7.03139 4.52893C6.59331 4.37559 6.13358 4.21468 5.56312 4.21468C4.49239 4.21468 3.3527 4.85334 2.63012 5.94518C1.61441 7.48296 1.78766 10.3738 3.43481 12.8365C4.02354 13.7179 4.81016 14.7082 5.83901 14.717C6.26592 14.7212 6.55 14.5968 6.85741 14.4622C7.20928 14.3081 7.59172 14.1407 8.25389 14.1372C8.91996 14.1333 9.29637 14.3028 9.64356 14.4592C9.94309 14.594 10.2209 14.7191 10.6441 14.7146C11.6738 14.7066 12.5039 13.6091 13.0927 12.7277Z" fill="#0B0B0A"/>
</svg>
