<svg width="148" height="128" viewBox="0 0 148 128" fill="none" xmlns="http://www.w3.org/2000/svg">
    <path d="M43.6938 50.4563L45.0171 46.5482L20.6395 38.2223L19.3258 42.0763C18.9878 42.9371 19.8728 44.2221 22.0546 45.7186C26.3564 48.6692 34.0708 51.3244 39.2851 51.6491C41.9361 51.8142 43.4305 51.3451 43.6938 50.4563Z" fill="url(#paint0_radial_1740_42817)"/>
    <g clip-path="url(#clip0_1740_42817)">
        <path d="M23.3789 41.835C27.6807 44.7856 35.3951 47.4407 40.6094 47.7654C45.8237 48.0901 46.5634 45.9614 42.2616 43.0108C37.9597 40.0602 30.2454 37.4051 25.0311 37.0804C19.8168 36.7557 19.0771 38.8844 23.3789 41.835Z" fill="#111726"/>
        <path d="M39.989 45.0446L38.0963 44.1973L28.9546 40.1033C29.624 40.0947 30.4792 40.2059 31.4249 40.4245C32.3705 40.643 33.3694 40.9603 34.3101 41.3409C35.2507 41.7216 36.0962 42.1506 36.7523 42.5801C37.4083 43.0096 37.849 43.4228 38.0252 43.7735L39.1083 44.2585L39.2703 44.3309C39.1938 43.93 38.7667 43.4333 38.0394 42.8994C37.3121 42.3655 36.3149 41.8167 35.1656 41.3179C34.0164 40.819 32.763 40.3909 31.5535 40.0842C30.344 39.7774 29.229 39.6048 28.34 39.5866C28.1727 39.5832 27.9616 39.5497 27.7333 39.4904C27.505 39.431 27.2696 39.3485 27.0569 39.2533L26.485 38.9973L25.4665 38.9339L27.1492 39.6872L27.6945 39.9312L28.2314 40.1716L37.8699 44.4874L38.9525 44.9724L41.1913 45.975L42.2092 46.0383L39.989 45.0446ZM40.1727 45.9118L27.7642 40.354L26.681 39.869L24.4509 38.871L23.433 38.8076L25.6462 39.7988L27.5394 40.6464L36.6923 44.7448C36.023 44.7541 35.1669 44.6432 34.2198 44.4246C33.2727 44.2059 32.272 43.8882 31.3297 43.5068C30.3874 43.1255 29.5407 42.6957 28.8843 42.2654C28.228 41.8351 27.7879 41.4215 27.6134 41.0707L27.5454 41.0406L26.3703 40.5146C26.4465 40.9155 26.8736 41.4124 27.6011 41.9465C28.3286 42.4805 29.3261 43.0295 30.4758 43.5284C31.6255 44.0274 32.8793 44.4555 34.089 44.7622C35.2988 45.0689 36.414 45.2414 37.3028 45.2593C37.47 45.2628 37.6809 45.2963 37.909 45.3556C38.1371 45.4148 38.3722 45.4972 38.5849 45.5923L39.1572 45.8486L40.1722 45.9118L40.1727 45.9118Z" fill="white"/>
    </g>
    <path d="M138.61 118.968L139.577 115.176L115.964 108.996L115.001 112.736C114.744 113.575 115.672 114.73 117.84 115.994C122.113 118.487 129.587 120.462 134.533 120.405C137.048 120.377 138.425 119.828 138.61 118.968Z" fill="url(#paint1_radial_1740_42817)"/>
    <g clip-path="url(#clip1_1740_42817)">
        <path d="M118.81 112.225C123.084 114.718 130.558 116.693 135.504 116.636C140.45 116.579 140.995 114.512 136.721 112.019C132.448 109.526 124.974 107.551 120.028 107.608C115.082 107.665 114.536 109.732 118.81 112.225Z" fill="#111726"/>
        <path d="M134.5 112.044L129.52 112.101L131.229 114.217L134.5 112.044Z" fill="white" fill-opacity="0.602"/>
        <path d="M134.499 112.044L124.05 110.029L129.52 112.101L134.499 112.044Z" fill="white"/>
        <path d="M124.413 112.16L121.03 112.199L130.448 114.227L124.413 112.16Z" fill="white" fill-opacity="0.602"/>
        <path d="M121.03 112.199L124.414 112.16L123.267 110.038L121.03 112.199Z" fill="white"/>
        <path d="M125.196 112.151L131.229 114.217L129.519 112.101L125.196 112.151Z" fill="white" fill-opacity="0.2"/>
        <path d="M124.05 110.029L125.196 112.151L129.519 112.101L124.05 110.029Z" fill="white" fill-opacity="0.602"/>
    </g>
    <path d="M10.5292 79.2405L7.15225 82.133C7.14022 82.1432 7.12821 82.1535 7.11624 82.1638L6.96962 82.2894L6.97149 82.2916C4.39486 84.6218 3.2933 88.6488 4.2668 93.8588C6.25431 104.496 16.1384 116.035 26.3436 119.633C31.3421 121.395 35.4906 120.925 38.189 118.737L38.1909 118.739L41.7504 115.69L10.5292 79.2405Z" fill="url(#paint2_radial_1740_42817)"/>
    <g clip-path="url(#clip2_1740_42817)">
        <circle cx="19.5928" cy="19.5928" r="19.5928" transform="matrix(0.943104 0.332497 0.183675 0.982987 4.08521 71.6723)" fill="black"/>
        <path d="M26.1088 87.4946L35.109 96.1694C35.9607 96.9903 36.1296 97.8939 35.4862 98.1877C34.2286 98.7619 31.8598 97.9268 30.1951 96.3223L17.5253 84.1106C19.7717 83.5215 23.4594 84.9409 26.1088 87.4946Z" fill="white"/>
        <path d="M22.1292 98.5704L34.7991 110.782C32.5527 111.371 28.8649 109.952 26.2155 107.398L17.2153 98.7234C16.3636 97.9024 16.1947 96.9988 16.8382 96.705C18.0957 96.1308 20.4646 96.9659 22.1292 98.5704Z" fill="white"/>
        <path d="M17.746 91.7841L36.1452 109.518C37.7767 108.336 37.095 105.544 34.4455 102.991L16.0464 85.2568C14.4149 86.4384 15.0966 89.2305 17.746 91.7841Z" fill="white"/>
    </g>
    <path d="M34.0495 15.2149L33.2681 14.4118C33.2657 14.4093 33.2633 14.4069 33.2609 14.4045L33.2315 14.3746L33.231 14.375C32.687 13.8515 31.7973 13.6733 30.6824 13.9629C28.4062 14.554 26.0533 16.8709 25.427 19.1376C25.1202 20.2479 25.2846 21.1403 25.7996 21.6923L25.7992 21.6928L26.5926 22.5047L34.0495 15.2149Z" fill="url(#paint3_radial_1740_42817)"/>
    <g clip-path="url(#clip3_1740_42817)">
        <path d="M28.1955 23.071C26.1391 23.0963 25.4107 21.2183 26.5689 18.8762C27.7267 16.5351 30.3328 14.6162 32.389 14.5912C34.4458 14.5656 35.1743 16.4436 34.0164 18.785C32.8584 21.1268 30.2521 23.0458 28.1955 23.071Z" fill="#111726"/>
        <path d="M30.3798 20.4882C30.9056 20.4275 31.3153 19.9351 31.6691 19.3154L32.361 19.3069L32.5981 18.8273L31.9245 18.8356C31.9868 18.7096 32.0483 18.5807 32.1094 18.4527L32.7875 18.4444L33.0246 17.9651L32.3329 17.9734C32.3824 17.8696 32.4311 17.7677 32.4803 17.6682L32.4824 17.6681L32.8097 17.0067L32.3599 17.0123C32.3599 17.0123 32.1906 17.3664 32.1878 17.3606C32.0917 17.5548 31.9614 17.6193 31.8669 17.6387L31.0786 17.6484C31.0719 17.6618 31.0628 17.6793 31.0506 17.6991C31.0585 17.6832 31.067 17.6661 31.0756 17.6485L29.9714 17.6619C29.9219 17.654 29.8541 17.6191 29.921 17.4834C29.9132 17.4896 30.0935 17.1348 30.0935 17.1348L29.6376 17.0457L29.329 17.6698C29.2715 17.7859 29.2132 17.9002 29.1571 18.0124L28.4572 18.0212L28.2203 18.5003L28.9127 18.4918C28.8452 18.6234 28.7814 18.7507 28.72 18.875L28.0309 18.8832L27.7938 19.3628L28.4923 19.3544C28.1342 20.1602 28.0335 20.7223 28.6637 20.7842C29.1712 20.8343 29.5519 20.5445 29.8747 20.0857C29.8616 20.3622 29.9947 20.5333 30.3798 20.4882ZM29.2153 19.8356C28.6922 19.8423 29.2559 18.8219 29.4164 18.4968L30.3435 18.4856C30.1827 18.8107 29.7607 19.8289 29.2153 19.8356ZM30.6337 19.5965C30.158 19.6022 30.6341 18.7511 30.7679 18.4804L31.6088 18.4701C31.475 18.7408 31.13 19.5903 30.6337 19.5965Z" fill="white"/>
    </g>
    <path d="M144.727 75.993L145.893 74.6092C145.896 74.605 145.899 74.6008 145.902 74.5966L145.941 74.5456L145.941 74.545C146.618 73.6075 146.695 72.2212 146.013 70.5949C144.622 67.2748 140.593 64.212 137.015 63.754C135.262 63.5297 134.011 63.9354 133.284 64.8351L132.464 65.8943L144.727 75.993Z" fill="url(#paint4_radial_1740_42817)"/>
    <g clip-path="url(#clip4_1740_42817)">
        <path d="M138.124 65.0754C141.88 66.4408 145.207 70.0924 145.554 73.2316C145.901 76.3695 143.136 77.8073 139.38 76.4416C135.623 75.0766 132.296 71.4249 131.949 68.2866C131.602 65.1475 134.367 63.71 138.124 65.0754Z" fill="#111726"/>
        <path d="M136.838 67.9166C135.935 67.6586 135.702 68.2048 135.706 69.003L134.442 68.5436L134.514 69.1865L135.744 69.6337C135.763 69.8027 135.786 69.9769 135.809 70.1501L134.57 69.6997L134.641 70.3422L135.905 70.8017C135.924 70.9421 135.942 71.0799 135.957 71.2132L135.953 71.2119L136.051 72.0984L136.872 72.3969C136.872 72.3969 136.809 71.9182 136.82 71.9299C136.792 71.6696 136.963 71.6506 137.117 71.6827L138.556 72.206C138.555 72.1881 138.553 72.1649 138.554 72.14C138.557 72.1614 138.559 72.1843 138.562 72.2079L140.579 72.9413C140.679 72.9883 140.84 73.0933 140.861 73.2754C140.869 73.2703 140.912 73.7427 140.912 73.7427L141.845 74.2043L141.753 73.3677C141.736 73.2121 141.722 73.0601 141.706 72.9102L142.985 73.3745L142.914 72.7324L141.649 72.2727C141.634 72.098 141.617 71.9279 141.598 71.7613L142.857 72.2192L142.786 71.5763L141.51 71.1123C141.316 70.0046 140.907 69.1297 139.682 68.5943C138.695 68.163 138.301 68.3888 138.193 68.9382C137.924 68.4829 137.498 68.1044 136.838 67.9166ZM139.671 69.8095C140.626 70.1563 140.668 71.4836 140.717 71.9195L139.023 71.3037C138.975 70.8679 138.674 69.4472 139.671 69.8095ZM137.314 69.2399C138.183 69.556 138.208 70.659 138.248 71.0219L136.712 70.4635C136.672 70.1006 136.407 68.9105 137.314 69.2399Z" fill="white"/>
    </g>
    <path d="M93.3877 40.0754L97.1196 43.6153C97.1309 43.6251 97.1422 43.6349 97.1536 43.6446L97.292 43.7639L97.2938 43.7618C99.8417 45.8405 103.772 46.2994 108.518 44.6504C118.207 41.2838 127.627 30.406 129.558 20.3541C130.504 15.4306 129.57 11.8178 127.138 9.60514L124.269 7.09852L93.3877 40.0754Z" fill="url(#paint5_radial_1740_42817)"/>
    <g clip-path="url(#clip5_1740_42817)">
        <path d="M105.281 42.1465C115.106 39.2026 124.883 28.7189 127.118 18.7305C129.353 8.74207 123.199 3.03131 113.374 5.97516C103.549 8.91901 93.7723 19.4027 91.5376 29.3911C89.3028 39.3795 95.456 45.0903 105.281 42.1465Z" fill="#111726"/>
        <path d="M118.872 14.6231L115.89 16.8087L101.486 27.3612C101.623 25.9797 102.162 24.4559 103.042 22.9597C103.923 21.4635 105.11 20.0537 106.471 18.8875C107.832 17.7214 109.314 16.8449 110.752 16.3556C112.189 15.8664 113.526 15.7837 114.612 16.1169L116.319 14.8665L116.574 14.6793C115.362 14.0436 113.78 13.9335 112.015 14.3621C110.25 14.7906 108.374 15.7399 106.611 17.0978C104.847 18.4558 103.268 20.1657 102.061 22.0256C100.854 23.8855 100.069 25.8177 99.7991 27.5941C99.7481 27.9283 99.5971 28.2925 99.3651 28.6408C99.133 28.9891 98.8303 29.306 98.4951 29.5516L97.5944 30.2121L97.1579 32.1631L99.8087 30.2201L100.667 29.5902L101.513 28.9704L116.699 17.843L118.405 16.5938L121.932 14.0091L122.369 12.0593L118.872 14.6231ZM121.497 15.9609L101.942 30.283L100.236 31.5334L96.7236 34.1091L96.2873 36.059L99.7748 33.5043L102.757 31.3184L117.178 20.7517C117.042 22.1345 116.504 23.6608 115.623 25.1599C114.742 26.6589 113.554 28.0715 112.19 29.2395C110.826 30.4075 109.341 31.2848 107.901 31.7733C106.462 32.2618 105.124 32.3421 104.038 32.0053L103.932 32.0846L102.081 33.4416C103.292 34.0778 104.874 34.1882 106.64 33.7595C108.406 33.3309 110.282 32.3812 112.046 31.0227C113.81 29.6642 115.389 27.9536 116.596 26.093C117.803 24.2324 118.588 22.2997 118.857 20.523C118.908 20.1891 119.059 19.8253 119.291 19.4773C119.523 19.1293 119.825 18.8127 120.16 18.567L121.061 17.9062L121.496 15.962L121.497 15.9609Z" fill="white"/>
    </g>
    <rect x="28" y="23.5" width="96" height="96" rx="48" fill="white"/>
    <rect x="28" y="23.5" width="96" height="96" rx="48" fill="#E7F0F2" fill-opacity="0.5"/>
    <rect x="52" y="47.5" width="48" height="48" rx="14.4" fill="url(#paint6_linear_1740_42817)"/>
    <g clip-path="url(#clip6_1740_42817)">
        <path d="M76.0964 82.54C70.3035 82.54 66.2568 78.9859 66.2568 73.8965C66.2568 69.0799 71.7577 61.1578 77.9695 59.5C76.5611 60.9051 74.6262 63.0233 73.547 65.3357C72.0167 68.6138 71.872 73.618 72.0057 74.206L72.2215 75.1549L73.1399 74.8005C74.131 74.4177 75.0875 73.8657 75.9821 73.1594C76.3156 72.895 76.6432 72.6074 76.9547 72.3046C77.168 72.097 77.3745 71.8818 77.5743 71.6608C79.5439 69.4752 80.8059 66.6458 81.0098 64.1007C83.814 65.9728 85.9368 70.0589 85.9368 73.8965C85.9368 78.9859 81.8901 82.54 76.0964 82.54Z" fill="white"/>
    </g>
    <defs>
        <radialGradient id="paint0_radial_1740_42817" cx="0" cy="0" r="1" gradientUnits="userSpaceOnUse" gradientTransform="translate(21.7028 40.4024) rotate(33.7464) scale(21.7886 66.2771)">
            <stop stop-color="#425053"/>
            <stop offset="1" stop-color="#A5B5B9"/>
        </radialGradient>
        <radialGradient id="paint1_radial_1740_42817" cx="0" cy="0" r="1" gradientUnits="userSpaceOnUse" gradientTransform="translate(117.125 110.986) rotate(29.5579) scale(20.6648 62.8114)">
            <stop stop-color="#425053"/>
            <stop offset="1" stop-color="#A5B5B9"/>
        </radialGradient>
        <radialGradient id="paint2_radial_1740_42817" cx="0" cy="0" r="1" gradientUnits="userSpaceOnUse" gradientTransform="translate(7.06628 113.716) rotate(-28.9791) scale(42.2278 120.664)">
            <stop stop-color="#425053"/>
            <stop offset="1" stop-color="#A5B5B9"/>
        </radialGradient>
        <radialGradient id="paint3_radial_1740_42817" cx="0" cy="0" r="1" gradientUnits="userSpaceOnUse" gradientTransform="translate(25.3738 20.2406) rotate(-20.1637) scale(7.88988 24.0611)">
            <stop stop-color="#425053"/>
            <stop offset="1" stop-color="#A5B5B9"/>
        </radialGradient>
        <radialGradient id="paint4_radial_1740_42817" cx="0" cy="0" r="1" gradientUnits="userSpaceOnUse" gradientTransform="translate(145.4 73.9548) rotate(-133.86) scale(14.4776 37.9998)">
            <stop stop-color="#425053"/>
            <stop offset="1" stop-color="#A5B5B9"/>
        </radialGradient>
        <radialGradient id="paint5_radial_1740_42817" cx="0" cy="0" r="1" gradientUnits="userSpaceOnUse" gradientTransform="translate(99.0677 42.333) rotate(-40.2165) scale(41.1953 107.969)">
            <stop stop-color="#425053"/>
            <stop offset="1" stop-color="#A5B5B9"/>
        </radialGradient>
        <linearGradient id="paint6_linear_1740_42817" x1="76" y1="47.5" x2="76" y2="95.5" gradientUnits="userSpaceOnUse">
            <stop stop-color="#5CB3CB"/>
            <stop offset="1" stop-color="#4594AF"/>
        </linearGradient>
        <clipPath id="clip0_1740_42817">
            <rect width="18.8906" height="18.9192" fill="white" transform="matrix(0.824659 0.56563 -0.998067 -0.0621527 34.4724 37.6683)"/>
        </clipPath>
        <clipPath id="clip1_1740_42817">
            <rect width="17.9171" height="17.9124" fill="white" transform="matrix(0.863775 0.503878 -0.999934 0.0114809 128.983 107.505)"/>
        </clipPath>
        <clipPath id="clip2_1740_42817">
            <rect width="39.1856" height="39.1856" fill="white" transform="matrix(0.943104 0.332497 0.183675 0.982987 4.08521 71.6723)"/>
        </clipPath>
        <clipPath id="clip3_1740_42817">
            <rect width="8.51627" height="8.51627" fill="white" transform="matrix(-0.266318 0.963885 -0.967889 0.251378 35.5479 13.6563)"/>
        </clipPath>
        <clipPath id="clip4_1740_42817">
            <rect width="13.0348" height="13.0617" fill="white" transform="matrix(-0.346131 -0.938186 0.987627 0.156823 134.557 75.8489)"/>
        </clipPath>
        <clipPath id="clip5_1740_42817">
            <rect width="37.1429" height="37.0656" fill="white" transform="matrix(0.957926 -0.287016 -0.218338 0.975873 95.584 11.3055)"/>
        </clipPath>
        <clipPath id="clip6_1740_42817">
            <rect width="23.04" height="23.04" fill="white" transform="translate(64 59.5)"/>
        </clipPath>
    </defs>
</svg>
